<?xml version="1.0" standalone="no"?>
<!DOCTYPE svg PUBLIC "-//W3C//DTD SVG 20010904//EN"
 "http://www.w3.org/TR/2001/REC-SVG-20010904/DTD/svg10.dtd">
<svg version="1.0" xmlns="http://www.w3.org/2000/svg"
 width="1024.000000pt" height="1024.000000pt" viewBox="0 0 1024.000000 1024.000000"
 preserveAspectRatio="xMidYMid meet">

<g transform="translate(0.000000,1024.000000) scale(0.100000,-0.100000)"
fill="#000000" stroke="none">
<path d="M2062 5994 c-36 -33 -21 7 -321 -864 -110 -322 -201 -599 -201 -616
0 -40 23 -70 66 -84 46 -16 95 -6 123 24 16 17 98 244 256 703 128 373 240
695 249 717 36 86 6 136 -88 144 -48 4 -56 1 -84 -24z"/>
<path d="M2418 5913 c-26 -30 -48 -81 -48 -112 0 -23 9 -36 48 -64 184 -136
282 -347 269 -576 -9 -169 -89 -324 -224 -436 -117 -96 -233 -140 -428 -162
l-70 -8 -22 -45 c-12 -25 -22 -62 -23 -82 0 -32 5 -40 31 -54 50 -26 125 -27
235 -6 178 35 319 107 442 226 161 154 246 338 259 561 13 242 -67 461 -234
636 -118 123 -198 164 -235 122z"/>
<path d="M7109 5803 c-38 -23 -59 -64 -59 -113 0 -92 108 -143 202 -94 33 17
58 61 58 102 0 35 -37 92 -70 109 -35 18 -100 16 -131 -4z"/>
<path d="M7455 5237 l0 -572 103 -3 102 -3 0 55 0 55 43 -43 c58 -57 124 -79
220 -74 92 4 154 34 228 107 208 208 151 580 -107 698 -50 23 -65 25 -147 21
-102 -5 -148 -22 -204 -78 l-33 -32 0 221 0 221 -102 0 -103 0 0 -573z m494
44 c153 -78 161 -328 14 -421 -87 -56 -183 -50 -248 15 -83 84 -79 304 8 383
58 54 148 63 226 23z"/>
<path d="M5890 5765 c0 -3 22 -63 49 -133 27 -70 97 -253 155 -407 58 -154
130 -343 160 -420 l54 -140 124 -3 123 -2 208 547 c114 302 207 552 207 556 0
5 -51 7 -112 5 l-113 -3 -42 -115 c-24 -63 -93 -254 -154 -425 -61 -170 -112
-311 -113 -313 -2 -1 -26 64 -55 145 -28 82 -97 274 -154 428 l-102 280 -117
3 c-65 1 -118 0 -118 -3z"/>
<path d="M3300 5210 l0 -553 238 6 c263 6 326 17 425 69 122 65 218 181 260
313 30 98 30 263 -2 354 -57 165 -191 290 -358 337 -43 12 -122 18 -310 21
l-253 5 0 -552z m511 341 c117 -45 191 -144 210 -280 18 -129 -17 -236 -103
-317 -73 -68 -143 -96 -269 -108 -58 -5 -112 -7 -120 -4 -12 5 -14 67 -11 373
l2 367 118 -4 c88 -4 131 -11 173 -27z"/>
<path d="M1319 5474 c-123 -119 -230 -223 -236 -232 -7 -9 -13 -30 -13 -46 1
-25 20 -52 102 -141 200 -218 218 -235 238 -235 11 0 37 15 56 33 31 28 37 42
41 84 l5 50 -92 104 -91 103 63 61 c35 33 116 109 181 168 99 92 117 113 117
138 0 64 -58 129 -115 129 -29 0 -58 -25 -256 -216z"/>
<path d="M2314 5568 c-27 -12 -64 -77 -64 -111 0 -13 9 -36 20 -50 11 -14 31
-50 45 -79 84 -186 -5 -377 -202 -434 -46 -14 -57 -21 -69 -50 -22 -51 -18
-91 12 -121 23 -23 31 -25 77 -20 30 4 86 23 133 47 134 65 243 198 273 331
13 57 13 162 0 219 -17 73 -70 171 -125 228 -51 53 -63 58 -100 40z"/>
<path d="M4620 5465 c-104 -33 -209 -135 -252 -245 -32 -85 -36 -212 -9 -298
40 -122 136 -219 256 -257 114 -35 296 -15 393 45 31 19 32 22 33 87 0 38 2
79 5 91 2 13 1 22 -3 20 -5 -1 -44 -21 -87 -43 -128 -64 -254 -62 -332 8 -36
31 -74 94 -74 122 0 13 34 15 274 15 l274 0 7 38 c9 56 -12 168 -45 238 -34
71 -100 136 -168 167 -61 27 -206 33 -272 12z m206 -164 c36 -22 71 -74 80
-120 l7 -31 -182 0 -182 0 6 23 c10 30 40 80 62 99 56 51 152 64 209 29z"/>
<path d="M8631 5460 c-234 -84 -343 -397 -216 -615 31 -53 109 -126 161 -153
128 -65 338 -56 462 20 l32 20 0 90 0 89 -52 -29 c-102 -58 -230 -78 -301 -49
-47 20 -95 64 -117 108 -38 73 -51 69 254 69 l274 0 4 43 c19 173 -80 351
-225 406 -76 28 -199 28 -276 1z m221 -156 c33 -17 74 -76 83 -121 l7 -33
-181 0 c-119 0 -181 4 -181 10 0 21 39 86 68 113 58 55 135 67 204 31z"/>
<path d="M5835 5462 l-100 -3 -95 -264 c-52 -146 -97 -265 -100 -265 -3 0 -48
119 -100 265 l-95 265 -108 0 c-60 0 -107 -4 -105 -8 2 -5 70 -185 153 -400
l149 -392 99 0 98 0 16 38 c32 77 293 765 291 766 -2 0 -48 0 -103 -2z"/>
<path d="M7080 5063 l0 -398 100 0 100 0 0 398 0 397 -100 0 -100 0 0 -397z"/>
</g>
</svg>
